<svg xmlns="http://www.w3.org/2000/svg" xmlns:xlink="http://www.w3.org/1999/xlink" width="100" zoomAndPan="magnify" viewBox="0 0 375 374.999991" height="100" preserveAspectRatio="xMidYMid meet" version="1.0"><defs><clipPath id="14b9f26f31"><path d="M 0 336.304688 L 375 336.304688 L 375 362.792969 L 0 362.792969 Z M 0 336.304688 " clipRule="nonzero"/></clipPath></defs><path fill="#000000" d="M 257.089844 50.652344 L 257.089844 65.859375 C 255.796875 65.582031 254.449219 65.4375 253.074219 65.4375 L 251.777344 65.4375 L 251.777344 61.425781 C 251.777344 60.308594 251.367188 59.234375 250.621094 58.402344 L 233.914062 39.769531 C 233.082031 38.84375 231.90625 38.296875 230.660156 38.265625 C 229.414062 38.234375 228.210938 38.707031 227.332031 39.589844 C 208.980469 57.921875 165.9375 56.910156 165.390625 56.898438 C 164.164062 56.859375 162.976562 57.324219 162.097656 58.175781 C 161.21875 59.027344 160.722656 60.199219 160.722656 61.425781 L 160.722656 65.4375 L 159.425781 65.4375 C 158.046875 65.4375 156.703125 65.582031 155.40625 65.859375 L 155.40625 51.082031 C 155.40625 37.386719 160.804688 24.472656 170.609375 14.710938 C 180.238281 5.132812 192.890625 -0.136719 206.253906 -0.136719 C 206.316406 -0.136719 206.378906 -0.136719 206.4375 -0.136719 C 234.367188 -0.0390625 257.089844 22.746094 257.089844 50.652344 " fill-opacity="1" fillRule="nonzero"/><path fill="#000000" d="M 160.722656 74.496094 L 160.722656 94.941406 L 159.425781 94.941406 C 153.785156 94.941406 149.191406 90.355469 149.191406 84.71875 C 149.191406 81.105469 151.074219 77.925781 153.914062 76.109375 C 155.507812 75.085938 157.394531 74.496094 159.425781 74.496094 L 160.722656 74.496094 " fill-opacity="1" fillRule="nonzero"/><path fill="#000000" d="M 258.789062 76.246094 C 261.511719 78.078125 263.304688 81.195312 263.304688 84.71875 C 263.304688 90.355469 258.714844 94.941406 253.074219 94.941406 L 251.777344 94.941406 L 251.777344 74.496094 L 253.074219 74.496094 C 255.1875 74.496094 257.15625 75.140625 258.789062 76.246094 " fill-opacity="1" fillRule="nonzero"/><path fill="#000000" d="M 242.710938 69.96875 L 242.710938 98.5 C 242.710938 110.816406 236.5625 121.726562 227.167969 128.320312 C 221.242188 132.480469 214.027344 134.925781 206.25 134.925781 C 198.472656 134.925781 191.253906 132.480469 185.328125 128.316406 C 175.9375 121.722656 169.789062 110.816406 169.789062 98.5 L 169.789062 65.953125 C 181.464844 65.734375 212.003906 63.707031 230.175781 49.175781 L 242.710938 63.15625 L 242.710938 69.96875 " fill-opacity="1" fillRule="nonzero"/><path fill="#000000" d="M 225.226562 139.84375 L 225.226562 151.402344 L 206.25 174.90625 L 187.273438 151.402344 L 187.273438 139.84375 C 193.054688 142.5 199.480469 143.984375 206.25 143.984375 C 213.019531 143.984375 219.445312 142.5 225.226562 139.84375 " fill-opacity="1" fillRule="nonzero"/><path fill="#000000" d="M 181.09375 158.175781 L 198.140625 179.285156 L 120.875 179.285156 C 124.6875 176.449219 128.972656 174.269531 133.589844 172.84375 L 181.09375 158.175781 " fill-opacity="1" fillRule="nonzero"/><path fill="#000000" d="M 291.625 179.285156 L 214.359375 179.285156 L 231.40625 158.175781 L 278.910156 172.84375 C 283.527344 174.269531 287.8125 176.449219 291.625 179.285156 " fill-opacity="1" fillRule="nonzero"/><path fill="#000000" d="M 179.746094 238.160156 C 181.726562 236.636719 182.09375 233.789062 180.566406 231.808594 C 179.039062 229.832031 176.191406 229.464844 174.207031 230.992188 L 144.050781 254.230469 C 142.941406 255.085938 142.289062 256.410156 142.289062 257.816406 C 142.289062 259.21875 142.941406 260.542969 144.050781 261.402344 L 174.207031 284.636719 C 175.03125 285.273438 176.007812 285.582031 176.972656 285.582031 C 178.328125 285.582031 179.671875 284.976562 180.566406 283.816406 C 182.09375 281.835938 181.726562 278.992188 179.746094 277.464844 L 154.242188 257.816406 Z M 221.609375 218.042969 C 222.257812 215.625 220.824219 213.144531 218.402344 212.496094 C 215.988281 211.851562 213.5 213.28125 212.855469 215.699219 L 190.890625 297.585938 C 190.242188 300.003906 191.675781 302.484375 194.097656 303.132812 C 194.488281 303.234375 194.882812 303.289062 195.273438 303.289062 C 197.273438 303.289062 199.105469 301.949219 199.644531 299.929688 Z M 270.210938 257.816406 C 270.210938 256.410156 269.558594 255.085938 268.445312 254.230469 L 238.292969 230.992188 C 236.308594 229.464844 233.460938 229.832031 231.933594 231.808594 C 230.40625 233.789062 230.769531 236.636719 232.753906 238.160156 L 258.253906 257.816406 L 232.753906 277.464844 C 230.769531 278.992188 230.40625 281.835938 231.933594 283.816406 C 232.828125 284.976562 234.167969 285.582031 235.523438 285.582031 C 236.492188 285.582031 237.46875 285.273438 238.292969 284.636719 L 268.445312 261.402344 C 269.558594 260.542969 270.210938 259.21875 270.210938 257.816406 Z M 329.085938 189.726562 C 329.910156 190.617188 330.316406 191.773438 330.226562 192.984375 L 320.179688 327.28125 L 92.320312 327.28125 L 82.273438 192.984375 C 82.183594 191.773438 82.589844 190.617188 83.414062 189.726562 C 84.242188 188.832031 85.367188 188.34375 86.585938 188.34375 L 325.914062 188.34375 C 327.128906 188.34375 328.257812 188.832031 329.085938 189.726562 " fill-opacity="1" fillRule="nonzero"/><g clip-path="url(#14b9f26f31)"><path fill="#000000" d="M 412.5 362.089844 L 412.5 362.792969 L 0 362.792969 L 0 362.089844 C 0 347.945312 11.511719 336.445312 25.667969 336.445312 L 386.832031 336.445312 C 400.988281 336.445312 412.5 347.945312 412.5 362.089844 " fill-opacity="1" fillRule="nonzero"/></g></svg>